<?xml version="1.0" standalone="no"?><!DOCTYPE svg PUBLIC "-//W3C//DTD SVG 1.1//EN" "http://www.w3.org/Graphics/SVG/1.1/DTD/svg11.dtd"><svg t="1600234692219" class="icon" viewBox="0 0 1024 1024" version="1.1" xmlns="http://www.w3.org/2000/svg" p-id="3632" xmlns:xlink="http://www.w3.org/1999/xlink" width="200" height="200"><defs><style type="text/css"></style></defs><path d="M513 977.5c-46.9 0-83.9-59.8-126.2-73.6-43.9-14.3-108.8 11.9-145.4-14.7-36.9-26.9-31.9-96.9-58.8-133.8C156 719 87.7 702.2 73.4 658.3c-13.8-42.4 31.2-95.9 31.2-142.8 0-46.9-44.9-100.4-31.2-142.8 14.3-43.9 82.5-60.7 109.1-97.2 26.9-36.9 21.9-106.9 58.8-133.8 36.5-26.6 101.5-0.4 145.4-14.7C429.1 113.2 466 53.4 513 53.4s83.9 59.8 126.2 73.6c43.9 14.3 108.8-11.9 145.4 14.7 36.9 26.9 31.9 96.9 58.8 133.8 26.6 36.5 94.9 53.3 109.1 97.2 13.8 42.4-31.2 95.9-31.2 142.8 0 46.9 44.9 100.4 31.2 142.8-14.3 43.9-82.5 60.7-109.1 97.2-26.9 36.9-21.9 106.9-58.8 133.8-36.5 26.6-101.5 0.4-145.4 14.7-42.3 13.7-79.3 73.5-126.2 73.5z" fill="#FCC58D" p-id="3633"></path><path d="M513 994.8c-33.2 0-60.7-22.9-84.9-43.1-16.3-13.6-31.8-26.5-46.7-31.3-15.9-5.2-36.7-3.9-58.6-2.5-32.4 2-65.9 4.1-91.6-14.6-26-18.9-34.3-51.6-42.4-83.2-5.4-21.1-10.5-41.1-20.2-54.4-9.5-13-26.7-23.9-45-35.4-27.8-17.5-56.5-35.6-66.6-66.6-9.6-29.7 2.6-60.6 14.4-90.5 7.8-19.8 16-40.4 16-57.7 0-17.3-8.1-37.8-16-57.7-11.8-29.9-24-60.8-14.4-90.5 10.1-31 38.8-49.1 66.6-66.6 18.3-11.5 35.5-22.4 45-35.4 9.7-13.3 14.8-33.3 20.2-54.4 8.1-31.6 16.4-64.3 42.4-83.2 25.7-18.7 59.2-16.6 91.6-14.6 22 1.4 42.7 2.7 58.6-2.5 14.9-4.8 30.3-17.7 46.7-31.3 24.2-20.2 51.7-43.1 84.9-43.1s60.7 22.9 84.9 43.1c16.3 13.6 31.8 26.5 46.7 31.3 15.9 5.2 36.7 3.9 58.6 2.5 32.4-2 65.9-4.1 91.6 14.6 26 18.9 34.3 51.6 42.4 83.2 5.4 21.1 10.5 41.1 20.2 54.4 9.5 13 26.7 23.9 45 35.4 27.8 17.5 56.5 35.6 66.6 66.6 9.6 29.7-2.6 60.6-14.4 90.5-7.8 19.9-16 40.4-16 57.7 0 17.3 8.1 37.8 16 57.7 11.8 29.9 24 60.8 14.4 90.5-10.1 31-38.8 49.1-66.6 66.6-18.3 11.5-35.5 22.4-45 35.4-9.7 13.3-14.8 33.3-20.2 54.4-8.1 31.6-16.4 64.3-42.4 83.2-25.7 18.7-59.2 16.6-91.6 14.6-21.9-1.4-42.7-2.7-58.6 2.5-14.9 4.8-30.3 17.7-46.7 31.3-24.2 20.2-51.7 43.1-84.9 43.1zM351.3 882.2c14.1 0 27.9 1.2 40.8 5.4 21.2 6.9 40 22.5 58.1 37.6 21.7 18 42.1 35.1 62.8 35.1 20.7 0 41.2-17 62.8-35.1 18.1-15.1 36.9-30.7 58.1-37.6 22.2-7.2 47.2-5.6 71.4-4.1 27.5 1.7 53.5 3.3 69.1-8.1 15.9-11.6 22.4-37 29.3-63.8 6-23.4 12.2-47.5 25.7-66.2 13.4-18.4 34.3-31.5 54.5-44.3 23.6-14.9 46-29 52.2-48.1 5.8-17.9-3.6-41.8-13.6-67.1-9-22.9-18.4-46.5-18.4-70.3 0-23.9 9.3-47.5 18.4-70.3 10-25.3 19.5-49.2 13.7-67.1-6.2-19.1-28.5-33.2-52.2-48.1-20.2-12.7-41.1-25.9-54.5-44.3-13.6-18.6-19.7-42.8-25.7-66.2-6.9-26.9-13.4-52.2-29.3-63.8-15.7-11.4-41.6-9.8-69.1-8.1-24.2 1.5-49.2 3.1-71.4-4.1-21.2-6.9-40-22.5-58.1-37.6-21.7-18-42.1-35.1-62.8-35.1-20.7 0-41.2 17-62.8 35.1-18.1 15.1-36.9 30.7-58.1 37.6-22.2 7.2-47.2 5.6-71.4 4.1-27.5-1.7-53.5-3.3-69.1 8.1-15.9 11.6-22.4 37-29.3 63.8-6 23.4-12.2 47.5-25.7 66.2-13.4 18.4-34.3 31.5-54.5 44.3-23.6 14.9-46 29-52.2 48.1-5.8 17.9 3.6 41.8 13.6 67.1 9 22.9 18.4 46.5 18.4 70.3 0 23.9-9.3 47.5-18.4 70.3-10 25.3-19.5 49.2-13.6 67.1 6.2 19.1 28.5 33.2 52.2 48.1 20.2 12.7 41.1 25.9 54.5 44.3 13.6 18.6 19.7 42.8 25.7 66.2 6.9 26.9 13.4 52.3 29.3 63.8 15.7 11.4 41.6 9.8 69.1 8.1 10-0.7 20.3-1.3 30.5-1.3z" fill="#8A278E" p-id="3634"></path><path d="M513 515.5m-306.4 0a306.4 306.4 0 1 0 612.8 0 306.4 306.4 0 1 0-612.8 0Z" fill="#FFEEAD" p-id="3635"></path><path d="M717.8 287.7c26 45 41 97.3 41 153.1 0 169.2-137.2 306.4-306.4 306.4-78.8 0-150.6-29.7-204.8-78.6 53 91.6 152 153.3 265.4 153.3 169.2 0 306.4-137.2 306.4-306.4 0-90.5-39.2-171.8-101.6-227.8z" fill="#F8D6A1" p-id="3636"></path><path d="M513 839.1c-178.5 0-323.6-145.2-323.6-323.6 0-178.5 145.2-323.6 323.6-323.6 178.5 0 323.6 145.2 323.6 323.6 0 178.4-145.2 323.6-323.6 323.6z m0-612.7c-159.4 0-289.1 129.7-289.1 289.1 0 159.4 129.7 289.1 289.1 289.1s289.1-129.7 289.1-289.1c0-159.4-129.7-289.1-289.1-289.1z" fill="#8A278E" p-id="3637"></path></svg>